<svg width="123" height="144" viewBox="0 0 123 144" fill="none" xmlns="http://www.w3.org/2000/svg">
<path d="M52.224 38.032V81.904C52.224 90.032 50.08 96.208 45.792 100.432C41.568 104.592 35.616 106.672 27.936 106.672C19.68 106.672 13.12 104.4 8.256 99.856C3.392 95.312 0.96 88.688 0.96 79.984H21.984C21.984 82.736 22.432 84.688 23.328 85.84C24.224 86.928 25.44 87.472 26.976 87.472C28.256 87.472 29.248 87.056 29.952 86.224C30.656 85.392 31.008 83.952 31.008 81.904V38.032H52.224ZM106.929 71.152C111.025 72.112 114.193 74.096 116.433 77.104C118.737 80.048 119.889 83.472 119.889 87.376C119.889 93.328 117.905 97.936 113.937 101.2C110.033 104.4 104.401 106 97.041 106H61.425V38.032H96.081C102.993 38.032 108.433 39.536 112.401 42.544C116.369 45.552 118.353 49.936 118.353 55.696C118.353 59.664 117.297 63.024 115.185 65.776C113.137 68.464 110.385 70.256 106.929 71.152ZM82.737 64.528H90.993C92.913 64.528 94.321 64.144 95.217 63.376C96.177 62.608 96.657 61.424 96.657 59.824C96.657 58.16 96.177 56.944 95.217 56.176C94.321 55.344 92.913 54.928 90.993 54.928H82.737V64.528ZM92.433 88.912C94.353 88.912 95.761 88.56 96.657 87.856C97.617 87.088 98.097 85.872 98.097 84.208C98.097 80.944 96.209 79.312 92.433 79.312H82.737V88.912H92.433Z" fill="#F55536"/>
<rect x="41" y="81.7828" width="32" height="12" transform="rotate(-40.5011 41 81.7828)" fill="#F55536"/>
<rect x="41" y="58.7828" width="32" height="12" transform="rotate(-40.5011 41 58.7828)" fill="#F55536"/>
</svg>
